<svg width="119" height="118" viewBox="0 0 119 118" fill="none" xmlns="http://www.w3.org/2000/svg">
<path d="M60.0857 22.1973C37.6197 22.1973 19.4316 40.3853 19.4316 62.8513C19.4316 85.3173 37.6197 103.505 60.0857 103.505C82.5517 103.505 100.74 85.2904 100.74 62.8513C100.74 40.4122 82.5248 22.1973 60.0857 22.1973ZM60.0857 79.6672C50.7764 79.6672 43.2429 72.1337 43.2429 62.8513C43.2429 53.5689 50.7764 46.0085 60.0857 46.0085C69.3949 46.0085 76.9016 53.542 76.9016 62.8513C76.9016 72.1606 69.368 79.6672 60.0857 79.6672Z" fill="#67C9CB"/>
<path d="M11.0782 25.8355C18.1811 15.4071 28.4445 7.53468 40.3573 3.37709C52.2702 -0.780501 65.2032 -1.00357 77.2524 2.74074L73.3775 15.2101C63.9989 12.2957 53.9324 12.4693 44.6599 15.7054C35.3874 18.9415 27.3989 25.0691 21.8702 33.1861L11.0782 25.8355Z" fill="#67C9CB"/>
</svg>
